<svg id="Layer_1" data-name="Layer 1" xmlns="http://www.w3.org/2000/svg" xmlns:xlink="http://www.w3.org/1999/xlink" viewBox="0 0 150.03 119.12" width="406" height="306" class="illustration styles_illustrationTablet__1DWOa"><defs><linearGradient id="linear-gradient" x1="97.82" y1="31.5" x2="119.85" y2="31.5" gradientUnits="userSpaceOnUse"><stop offset="0.01"></stop><stop offset="0.08" stop-opacity="0.69"></stop><stop offset="0.21" stop-opacity="0.32"></stop><stop offset="1" stop-opacity="0"></stop></linearGradient><linearGradient id="linear-gradient-2" x1="-253.81" y1="97.32" x2="-30.86" y2="221.53" gradientTransform="translate(304.4 9.5) rotate(9.48)" xlink:href="#linear-gradient"></linearGradient><linearGradient id="linear-gradient-3" x1="-241.59" y1="65.63" x2="-120.33" y2="149.35" gradientTransform="translate(304.4 9.5) rotate(9.48)" xlink:href="#linear-gradient"></linearGradient><linearGradient id="linear-gradient-4" x1="-202.6" y1="129.26" x2="-165.69" y2="118.18" gradientTransform="translate(304.4 9.5) rotate(9.48)" xlink:href="#linear-gradient"></linearGradient><linearGradient id="linear-gradient-5" x1="-634.31" y1="118.35" x2="-610.01" y2="164.34" gradientTransform="matrix(0.83, 0.19, -0.47, 0.92, 694.06, 65.22)" xlink:href="#linear-gradient"></linearGradient><linearGradient id="linear-gradient-6" x1="-629.46" y1="115.79" x2="-605.17" y2="161.78" gradientTransform="matrix(0.83, 0.19, -0.47, 0.92, 694.06, 65.22)" xlink:href="#linear-gradient"></linearGradient><linearGradient id="linear-gradient-7" x1="532.06" y1="133.87" x2="540.77" y2="153.81" gradientTransform="translate(-492.29 112.88) rotate(-15.73)" xlink:href="#linear-gradient"></linearGradient><linearGradient id="linear-gradient-8" x1="-1536.15" y1="956.94" x2="-1550.66" y2="969.3" gradientTransform="translate(1807.84 -425.63) rotate(14.77)" gradientUnits="userSpaceOnUse"><stop offset="0.01"></stop><stop offset="0.13" stop-opacity="0.69"></stop><stop offset="0.25" stop-opacity="0.32"></stop><stop offset="1" stop-opacity="0"></stop></linearGradient><linearGradient id="linear-gradient-9" x1="41.88" y1="967.74" x2="63.72" y2="947.55" gradientTransform="translate(269.79 -831.08) rotate(14.77)" xlink:href="#linear-gradient-8"></linearGradient></defs><title>13</title><path d="M40.42,129a32.35,32.35,0,0,1-14.89-6.6c-5.08-4-10.61-9.39-10.44-16.08.18-7.09,2.83-13.92,5.7-20.31,3.88-8.63,9.28-17.73,7.85-27.34s.49-21.11,5.55-29.25c8-12.82,22-15.93,36-16.23,9.25-.19,18.77.36,27.2,4.17,8.86,4,16,11.4,25,14.83,6,2.26,12.56,2.71,18.43,5.25,7.39,3.21,13.09,9.57,16.78,16.73s5.57,15.11,7,23c2.34,13.34-3.22,30-11.23,40.92-5.34,7.26-14.28,15.67-23.47,13.91C83.11,123.12,92.1,137.39,40.42,129Z" transform="translate(-15.09 -13.19)" fill="#6885fc" opacity="0.18" style="isolation: isolate;"></path><polygon points="88.5 21.24 119.85 25.41 97.82 27.75 88.5 21.24" fill="#6885fc"></polygon><polygon points="97.82 27.75 99.49 37.59 102.16 29.42 119.85 25.41 97.82 27.75" fill="#6885fc"></polygon><polygon points="97.82 27.75 99.49 37.59 102.16 29.42 119.85 25.41 97.82 27.75" fill="url(#linear-gradient)"></polygon><polygon points="108.83 38.43 102.16 29.42 119.85 25.41 108.83 38.43" fill="#6885fc"></polygon><polygon points="99.49 37.59 105.9 34.46 102.16 29.42 99.49 37.59" fill="#fff"></polygon><polygon points="99.49 37.59 105.9 34.46 102.16 29.42 99.49 37.59" fill="#6885fc" opacity="0.59" style="isolation: isolate;"></polygon><path d="M109.29,51.73,109,50.42a8.64,8.64,0,0,0,1-.26l.46,1.25A9.32,9.32,0,0,1,109.29,51.73Z" transform="translate(-15.09 -13.19)" fill="#6885fc"></path><path d="M68.67,112.7c-.73-.24-1.44-.48-2.13-.74l.46-1.25c.67.25,1.37.49,2.08.72Zm-6.3-2.49c-.7-.34-1.38-.69-2-1L61,108c.61.34,1.26.68,1.94,1Zm54-.82-2.25,0,0-1.34,2.21.06Zm4.5-.08-.07-1.33c.75,0,1.49-.09,2.2-.16l.11,1.33C122.41,109.22,121.66,109.27,120.89,109.31ZM109.65,109l-2.23-.23.15-1.33c.74.09,1.47.16,2.2.23Zm18-.48-.23-1.31c.73-.13,1.46-.28,2.15-.44l.3,1.3C129.12,108.28,128.37,108.43,127.61,108.56Zm6.57-1.76-.47-1.24c.7-.27,1.37-.55,2-.85l.58,1.2C135.62,106.23,134.91,106.53,134.18,106.8Zm-77.61-.18a18.4,18.4,0,0,1-1.7-1.56l1-.92a17.21,17.21,0,0,0,1.58,1.45Zm83.64-3.1-.82-1.06c.35-.27.69-.56,1-.86L141,101l.93.95-.62.59C141,102.9,140.59,103.22,140.21,103.52Zm-88-2.28A11.57,11.57,0,0,1,51.45,99l1.3-.29a9.54,9.54,0,0,0,.67,2Zm24.9-.32L75,100l.54-1.22c.67.29,1.35.58,2,.86Zm67.82-2.39-1.09-.77a16.14,16.14,0,0,0,1.11-1.82l1.18.61A17.42,17.42,0,0,1,144.92,98.53Zm-74-.38c-.68-.33-1.35-.67-2-1L69.57,96c.65.34,1.31.68,2,1ZM65,95c-.65-.38-1.3-.77-1.92-1.17l.71-1.13c.61.39,1.25.78,1.89,1.16Zm-12.3-.39-1.31-.25a14.82,14.82,0,0,1,.64-2.24l1.25.46A13.54,13.54,0,0,0,52.72,94.56Zm94.8-2.48-1.33-.14a9.24,9.24,0,0,0,.06-1,8.89,8.89,0,0,0-.06-1l1.33-.14a11.46,11.46,0,0,1,.06,1.17A11.71,11.71,0,0,1,147.52,92.08Zm-88.15-.82c-.61-.45-1.22-.9-1.8-1.36l.82-1.05c.57.45,1.16.89,1.76,1.33ZM55.3,88.74,54.19,88c.42-.61.88-1.22,1.37-1.83l1,.84C56.13,87.58,55.69,88.17,55.3,88.74ZM54.14,87c-.56-.52-1.1-1.06-1.61-1.59l1-.93c.5.52,1,1,1.56,1.55Zm90.79-1.07a15.3,15.3,0,0,0-1.13-1.8l1.08-.79a17.57,17.57,0,0,1,1.23,2ZM59.59,83.83l-.91-1c.54-.5,1.11-1,1.7-1.5l.85,1C60.66,82.85,60.11,83.34,59.59,83.83Zm-10-1.92c-.46-.62-.9-1.25-1.29-1.88l1.13-.71c.37.6.79,1.2,1.23,1.79Zm91.3-1c-.51-.47-1.07-.94-1.66-1.4l.82-1c.62.48,1.2,1,1.74,1.47ZM64.73,79.71,64,78.61c.61-.42,1.25-.84,1.88-1.25l.72,1.13C66,78.88,65.33,79.29,64.73,79.71ZM135.62,77c-.61-.38-1.25-.75-1.9-1.11l.65-1.17c.67.37,1.33.76,1.95,1.14Zm-65.25-.74-.63-1.17c.65-.36,1.33-.71,2-1l.6,1.2C71.68,75.55,71,75.9,70.37,76.25ZM46.21,76c-.28-.72-.53-1.46-.73-2.18l1.29-.35c.19.67.42,1.36.68,2Zm83.58-2.09-2-.89.52-1.23c.69.3,1.39.6,2.06.91Zm-53.45-.51-.52-1.23c.68-.29,1.39-.58,2.08-.85l.49,1.24C77.71,72.79,77,73.08,76.34,73.37Zm47.31-2c-.69-.24-1.39-.48-2.1-.71l.41-1.27c.72.23,1.44.48,2.13.72ZM82.55,71l-.42-1.27c.72-.23,1.44-.46,2.16-.67l.38,1.28C84,70.58,83.25,70.8,82.55,71Zm34.75-1.59c-.71-.18-1.44-.36-2.15-.52l.3-1.3c.72.16,1.46.34,2.19.53Zm-72.49-.19c0-.36,0-.71,0-1.06s0-.82,0-1.22l1.33.06c0,.38,0,.76,0,1.16s0,.67,0,1Zm44.13,0L88.64,68c.73-.17,1.47-.33,2.2-.48l.26,1.31C90.38,68.92,89.65,69.08,88.94,69.24Zm21.88-1.16L110,68l-1.34-.16.14-1.33,1.39.17.85.13Zm-15.36,0-.18-1.32c.75-.1,1.5-.18,2.24-.25l.13,1.32C96.92,67.87,96.19,68,95.46,68.05Zm6.59-.52,0-1.33c.75,0,1.5,0,2.25,0l0,1.34C103.52,67.51,102.78,67.52,102.05,67.53ZM46.7,62.73l-1.3-.29c.16-.75.37-1.49.6-2.21l1.27.42A19.87,19.87,0,0,0,46.7,62.73Zm2.32-6-1.15-.67a22.67,22.67,0,0,1,1.26-1.92l1.08.79A19.31,19.31,0,0,0,49,56.72Zm55.66-4.63a19.79,19.79,0,0,1-2.29-.25l.22-1.32a19.46,19.46,0,0,0,2.14.24ZM53.1,51.72l-.9-1c.56-.5,1.15-1,1.77-1.46l.8,1.07C54.19,50.78,53.62,51.24,53.1,51.72ZM98,50.55a20.64,20.64,0,0,1-2.07-1l.64-1.17a21.51,21.51,0,0,0,1.94.93ZM58.45,48l-.63-1.18c.66-.34,1.35-.68,2-1l.54,1.22C59.74,47.36,59.07,47.68,58.45,48Zm33.68-1a10.92,10.92,0,0,0-1.81-1l.56-1.21a12.58,12.58,0,0,1,2,1.17ZM64.52,45.54l-.39-1.28c.71-.21,1.45-.41,2.19-.6l.31,1.3C65.92,45.13,65.21,45.33,64.52,45.54Zm21.7-.93c-.68-.16-1.4-.3-2.14-.42l.21-1.31c.77.12,1.52.27,2.24.44ZM71,44.13l-.19-1.32c.74-.1,1.5-.19,2.25-.26l.12,1.33C72.4,44,71.67,44,71,44.13Zm8.77-.39c-.72,0-1.46-.06-2.2-.06V42.35c.76,0,1.52,0,2.26.06Z" transform="translate(-15.09 -13.19)" fill="#6885fc"></path><path d="M74.12,114.25,73,114l.33-1.3c.36.1.71.19,1.07.27Z" transform="translate(-15.09 -13.19)" fill="#6885fc"></path><path d="M88.12,60.76a4.12,4.12,0,0,1-.31,1.31,1.86,1.86,0,0,1-1.37.83c-.55.09-1.11.05-1.66.1s-1.15.37-1.09.88a1,1,0,0,0,.19.43l.67,1.13a.57.57,0,0,1,.12.39c0,.19-.25.29-.43.37a3.67,3.67,0,0,0-1.87,2.29,5.6,5.6,0,0,0,0,3,.52.52,0,0,0,.2.35.58.58,0,0,0,.3.07,2.37,2.37,0,0,1,1.56,1,14.67,14.67,0,0,1,.93,1.7A9.39,9.39,0,0,0,93,79.56a1.82,1.82,0,0,0,.77-.09,1.52,1.52,0,0,0,.68-.69c.69-1.26.49-2.77.54-4.15a5.33,5.33,0,0,1,.38-2c.16-.36.31-.38.54-.59a.8.8,0,0,0,.36-.66,5.74,5.74,0,0,0-.25-1,2.69,2.69,0,0,1,.4-1.8,17.38,17.38,0,0,0,.93-1.62,5.88,5.88,0,0,0,.36-1.61,5.88,5.88,0,0,0-.67-4.11,3.43,3.43,0,0,0-2.43-1.43,6.67,6.67,0,0,1-1.18-.14c-.59-.19-.79-.8-1.41-1a3.07,3.07,0,0,0-1.67-.1A2.92,2.92,0,0,0,88.12,60.76Z" transform="translate(-15.09 -13.19)" fill="#473f47"></path><path d="M91.13,120.86a4.66,4.66,0,0,1,.93,1.11.4.4,0,0,1,.06.26c0,.14-.19.22-.34.26a2.87,2.87,0,0,1-3.24-1.41,4,4,0,0,1-.72-2.26l.17-1.3a2.31,2.31,0,0,1,.14-.59,2,2,0,0,1,.37-.5,2.86,2.86,0,0,1,.88-.67.18.18,0,0,1,.12,0c.08,0,.12.1.14.17a2.24,2.24,0,0,1-.06,1,4.08,4.08,0,0,0,.63,2.72A5.87,5.87,0,0,0,91.13,120.86Z" transform="translate(-15.09 -13.19)" fill="#f89659"></path><path d="M94.48,113.5a.7.7,0,0,0,.12.28.53.53,0,0,0,.2.16,2.08,2.08,0,0,0,1.08.14c.45,0,.89-.09,1.33-.16a.74.74,0,0,0,.63-.34.54.54,0,0,0-.27-.62,1.88,1.88,0,0,0-.7-.2,1.12,1.12,0,0,1-.65-.32c-.25-.31-.14-.8-.4-1.1a1.25,1.25,0,0,0-1.13-.19C93.88,111.4,94.31,112.93,94.48,113.5Z" transform="translate(-15.09 -13.19)" fill="#f89659"></path><path d="M98,101.59c-.05.21-.09.42-.13.63-.45,2.6-1,5.19-1.51,7.78a2.93,2.93,0,0,1-.66,1.55,1,1,0,0,1-.84.37h-.09c-.42-.14-.66-.73-.66-1.32L94.33,100a.71.71,0,0,0,0-.38.82.82,0,0,0-.32-.26c-.3-.16-.59-.33-.88-.5-.89-.51-1.76-1.06-2.61-1.63-1.14-.77-2.25-1.58-3.32-2.45a4.53,4.53,0,0,1-1.77-2,32.11,32.11,0,0,0-1.22-3,24.67,24.67,0,0,0-1.88-3.56c-.09-.13-.43-.79-.62-.82l7.27.8a2.5,2.5,0,0,1,1.76.62,24.44,24.44,0,0,1,2.16,2.94c1.51,2,3,4.07,4.54,6.1a4.42,4.42,0,0,1,1.15,2.46A16.45,16.45,0,0,1,98,101.59Z" transform="translate(-15.09 -13.19)" fill="#473f47"></path><path d="M89.74,116.6a1.7,1.7,0,0,1-.35.36,3.09,3.09,0,0,1-.68.45l-.07,0a1.14,1.14,0,0,1-.87,0c-.73-.31-.51-2.1-.55-2.8-.07-1.1-.13-2.19-.2-3.29-.12-2.14-.25-4.28-.37-6.43-.06-1-.13-2-.18-3l-.37-.65-.17-.29-.2-.35-.21-.39c-.12-.2-.24-.42-.37-.65-.21-.39-.41-.8-.62-1.2a7.44,7.44,0,0,0-.44-.78,1.88,1.88,0,0,0-.18-.24,12.31,12.31,0,0,0-1.29-1.21A8.61,8.61,0,0,1,80,91.27a8,8,0,0,1-.1-1.54,8.2,8.2,0,0,1,.38-2.36A9,9,0,0,1,81,85.8a4.2,4.2,0,0,1,.9-1.18,2.27,2.27,0,0,1,.58-.39c1.38-.63,2.78.94,3.74,1.77s2.62,2,3.14,3.25S90.86,101,90.86,101c0,2.58,0,5.16-.15,7.73-.06,1.53-.13,3.06-.28,4.58A8.43,8.43,0,0,1,89.74,116.6Z" transform="translate(-15.09 -13.19)" fill="#473f47"></path><path d="M88.71,117.41l-.07,0a1.14,1.14,0,0,1-.87,0c-.73-.31-.51-2.1-.55-2.8-.07-1.1-.13-2.19-.2-3.29-.12-2.14-.25-4.28-.37-6.43-.06-1-.13-2-.18-3l-.37-.65-.17-.29-.2-.35-.21-.39c-.12-.2-.24-.42-.37-.65l-.71-1.27-.53-1a12.31,12.31,0,0,0-1.29-1.21A8.61,8.61,0,0,1,80,91.27a8,8,0,0,1-.1-1.54,8.2,8.2,0,0,1,.38-2.36A9,9,0,0,1,81,85.8a4.2,4.2,0,0,1,.9-1.18,1.27,1.27,0,0,1,.21.25c.76,1.09.72,2.52.8,3.85a14.32,14.32,0,0,0,1,4.84h0l.27.55v0a2.53,2.53,0,0,0,.12.23,41.94,41.94,0,0,1,2.77,5.16c1.57,4,1,8.38,1.2,12.62a31.73,31.73,0,0,0,.38,3.5A5.49,5.49,0,0,1,88.71,117.41Z" transform="translate(-15.09 -13.19)" fill="url(#linear-gradient-2)"></path><path d="M111.11,84.65h0c-.41,0-.82,0-1.22,0a3.9,3.9,0,0,1-1.22-.3c-.37-.17-.68-.43-1.06-.59-.78-.34-1.63-.5-2.39-.89-1.15-.58-2.26-1.24-3.36-1.89L99.2,79.4a29.71,29.71,0,0,1-2.61-1.68l-.49-.38c-.24-.2-.54-.42-.84-.33a1,1,0,0,0-.32.24,3.46,3.46,0,0,0-.64,1.62,6,6,0,0,1-.59,1.46c-.49.9-.95,1.82-1.48,2.69a7.39,7.39,0,0,1-1.6,2.27,2.36,2.36,0,0,1-1.44.25A16.72,16.72,0,0,0,86,85.42a10.61,10.61,0,0,1-1.48.24,3.66,3.66,0,0,1-2.13-.74c-.54-.42-.3-1-.08-1.55.84-2.19,1.67-3.47.69-5.72.19.44-3.88,2-4.39,2-2.13,0-3.4-1.56-5-2.77a23.38,23.38,0,0,0-3-1.87,5.74,5.74,0,0,0-1-.46c-.33-.11-.76-.1-1-.33a1.53,1.53,0,0,1-.26-.31,3.08,3.08,0,0,1-.32-.66,1.55,1.55,0,0,0-.41-.73,1.36,1.36,0,0,0-1-.15,2.54,2.54,0,0,1-.55,0,.24.24,0,0,1-.18-.09.19.19,0,0,1,0-.23.67.67,0,0,1,.23-.1l1.37-.29c-.39-.34-1-.25-1.48-.41a.37.37,0,0,1-.17-.1.23.23,0,0,1,.12-.3.62.62,0,0,1,.36,0l1.48.17c-.44-.54-1.38-.38-1.83-.91A1.26,1.26,0,0,1,67.17,70a5.15,5.15,0,0,1,1.65.53,4.27,4.27,0,0,1,.86.66,31.23,31.23,0,0,0,3.18,3,10.59,10.59,0,0,0,2.54,1.21c.39.14.8.23,1.19.36s.88.37,1.31.55a1.11,1.11,0,0,0,.52.13,1.21,1.21,0,0,0,.41-.16,9.05,9.05,0,0,0,2.36-2.09c.71-.84,1.54-1.58,2.29-2.38A3.12,3.12,0,0,1,84.54,71c.76-.26,1.57.12,2.38.15a2.41,2.41,0,0,0,1.83-.71c.47-.55.45-1.37,1-1.92a2.29,2.29,0,0,1,1.11-.58,9.08,9.08,0,0,0,1.33-.55c.34-.16.77-.31,1.07-.08a.33.33,0,0,1,.15.28.48.48,0,0,1-.09.27,13.16,13.16,0,0,0-.57,1.28,2.54,2.54,0,0,0-.24,1.42c.14.69,1,1.08,1.58,1.33.84.36,1.77.42,2.61.76a6.9,6.9,0,0,1,2.21,1.62c1,1,1.83,2,2.74,3,.46.5.93,1,1.44,1.47A15.07,15.07,0,0,0,105.23,80a19.28,19.28,0,0,0,2.59,1.43,9.86,9.86,0,0,0,2,.65,8.71,8.71,0,0,0,.85.2c.3,0,.46-.1.71-.25a1.77,1.77,0,0,1,1.24-.15,6.08,6.08,0,0,1,2.47,1.18c.21.14.44.35.4.6a.16.16,0,0,1,0,.1c-.08.07-.2,0-.29-.07a1.57,1.57,0,0,0-1.07-.29c.28.22.58.49.55.84a.11.11,0,0,1,0,.08.1.1,0,0,1-.09,0c-.31,0-.54-.29-.83-.43a1.83,1.83,0,0,0-.9-.16c-.14,0-.59,0-.59.18a.16.16,0,0,0,0,.09,1.59,1.59,0,0,0,.29.29.35.35,0,0,1,.13.36c-.07.14-.26.16-.42.15C111.85,84.78,111.49,84.69,111.11,84.65Z" transform="translate(-15.09 -13.19)" fill="#f89659"></path><path d="M109.85,84.51a.92.92,0,0,1-.36.13,1.82,1.82,0,0,1-1.11-.48,25.34,25.34,0,0,0-3.18-1.32c-1.15-.58-2.26-1.24-3.36-1.89L99.2,79.4a29.71,29.71,0,0,1-2.61-1.68c.23.17,1.18-1.27,1.34-1.4.93-.76.6.87.58,1.42a.91.91,0,0,0,0,.33.75.75,0,0,0,.33.33q2.52,1.65,5.19,3.06c.9.47,1.83.9,2.74,1.36.75.38,1.56.6,2.34.91.33.13.7.33.71.68A.34.34,0,0,1,109.85,84.51Z" transform="translate(-15.09 -13.19)" fill="#d57439"></path><path d="M89.25,69.09a1.72,1.72,0,0,1-.24,1c-.26.35,1.48.81,2,.31a18.3,18.3,0,0,0,1.5-1.93Z" transform="translate(-15.09 -13.19)" fill="#d57439"></path><path d="M91.31,69.21a3,3,0,0,1-1.75.13,2,2,0,0,1-1.33-1.09,2.89,2.89,0,0,1-.15-1.14,9.05,9.05,0,0,1,1.84-5.17,2.07,2.07,0,0,1,.64-.61,1.58,1.58,0,0,1,1.11-.1,3.4,3.4,0,0,1,1.8,1.18,9.2,9.2,0,0,1,1.14,1.85c.22.41.63,1.06.44,1.54a5.75,5.75,0,0,1-1,1.2A6.53,6.53,0,0,1,91.31,69.21Z" transform="translate(-15.09 -13.19)" fill="#f89659"></path><path d="M91.86,85.44a2.41,2.41,0,0,1-2.23,1.12c-1.73.14-3.47-.31-5.19,0-.53.09-1,.25-1.58.29h-.15a1.88,1.88,0,0,1-1.57-.61c-.54-.71-.2-1.73.15-2.56.65-1.49,1.87-3.2,1.17-4.86l0,0c-.09-.18-.21-.34-.29-.52a2.51,2.51,0,0,1-.17-.61l-.26-1.28c-.18-.85-.35-1.7-.53-2.56a1.14,1.14,0,0,1,0-.52,1.12,1.12,0,0,1,.45-.54l1.81-1.44a3.09,3.09,0,0,1,1.24-.71,5.21,5.21,0,0,1,1.47.08,7.7,7.7,0,0,0,1.9-.31c.08,0,.17,0,.23,0a.33.33,0,0,1,.1.23,2,2,0,0,0,.38.77,4.47,4.47,0,0,0,.42.45l.19.18,1.09,1a3.06,3.06,0,0,0,.79.6c1,.45,1.71-.75,1.66-1.64a4.09,4.09,0,0,0-.44-1.43c.46.18.92.38,1.38.59a9.85,9.85,0,0,0,1.3.65c.7.19,1.37,0,2,.44a12.58,12.58,0,0,1,2.28,1.9L99,75.21c-.61,1.28-1.32,2.66-2.62,3.22-.34.14-.69.23-1,.39-.56.28-.62.72-.87,1.22-.43.87-.86,1.74-1.25,2.62A19.21,19.21,0,0,1,91.86,85.44Z" transform="translate(-15.09 -13.19)" fill="#fff"></path><path d="M93.67,72.93a.83.83,0,0,1,.3-.23.57.57,0,0,1,.29,0c1.26.1,2.52.24,3.77.41-1.55-1.38-4-1.32-5.66-2.49-.23.43,0,.93.12,1.4a3.92,3.92,0,0,1,0,1.28A1.22,1.22,0,0,0,93.67,72.93Z" transform="translate(-15.09 -13.19)" fill="url(#linear-gradient-3)"></path><path d="M69.22,74a1.25,1.25,0,0,1-.83-.07,2.87,2.87,0,0,1-.32-.66,1.55,1.55,0,0,0-.41-.73,1.37,1.37,0,0,0-1-.15,1.23,1.23,0,0,1,.63-.19.74.74,0,0,0,.6-.34c0-.08,0-.18.1-.25s.26-.09.4-.07a4.22,4.22,0,0,1,.82.29,1.55,1.55,0,0,1,.51.31.66.66,0,0,1,.26.45c-.09,0-.22-.1-.31-.15a1.78,1.78,0,0,0-.36-.14,2.3,2.3,0,0,0-.78-.07s-.08,0-.09,0,0,.09.06.12c.37.29.84.43,1.2.74a.31.31,0,0,1,.13.15.34.34,0,0,1,0,.26A.79.79,0,0,1,69.22,74Z" transform="translate(-15.09 -13.19)" fill="#d57439"></path><path d="M98.52,113.06a1.2,1.2,0,0,0-1-.08,4.46,4.46,0,0,0-.43.33,1.82,1.82,0,0,1-1.34,0A8.07,8.07,0,0,0,94.3,113s0,1,.18,1.09a2.55,2.55,0,0,0,.73.14,11.74,11.74,0,0,0,3,0c.28-.06,1.22-.21,1.35-.52S98.78,113.15,98.52,113.06Z" transform="translate(-15.09 -13.19)" fill="#6885fc"></path><path d="M92.73,122.16a1.33,1.33,0,0,1,.33.72.4.4,0,0,1-.08.26.46.46,0,0,1-.23.09,5.39,5.39,0,0,1-2,.06,2.89,2.89,0,0,1-1.7-.92c-.29-.35-.48-.77-.75-1.13s-.52-.59-.73-.92,0-.92.16-1.28c.18,0,.12.35.2.51a4.83,4.83,0,0,0,1.14,1.55,2.28,2.28,0,0,0,1.64.78.71.71,0,0,0,.58-.3c.1-.16,0-.53.17-.59S92.57,122,92.73,122.16Z" transform="translate(-15.09 -13.19)" fill="#6885fc"></path><path d="M94.9,111.92h-.09c-.42-.14-.66-.73-.66-1.32L94.33,100a.71.71,0,0,0,0-.38.82.82,0,0,0-.32-.26c-.3-.16-.59-.33-.88-.5-.89-.51-1.76-1.06-2.61-1.63L90,93s5.27,3.49,5.82,5.13S94.9,111.92,94.9,111.92Z" transform="translate(-15.09 -13.19)" fill="url(#linear-gradient-4)"></path><path d="M92.39,64.7a8.51,8.51,0,0,0,1.22.35c.41.14.82.45.83.87.35,0,.54-.4.64-.73a7.21,7.21,0,0,0,.4-1.71,2.64,2.64,0,0,0-.4-1.67c-.57-.81-2.68-2.33-3.35-.91C91.22,62,91.16,64.06,92.39,64.7Z" transform="translate(-15.09 -13.19)" fill="#473f47"></path><path d="M103,108.2c-.74-.12-1.48-.24-2.22-.38l.24-1.31c.73.13,1.46.26,2.19.37Z" transform="translate(-15.09 -13.19)" fill="#6885fc"></path><path d="M96.35,106.94c-.73-.16-1.45-.33-2.18-.51l.31-1.29,2.16.5Z" transform="translate(-15.09 -13.19)" fill="#6885fc"></path><path d="M89.82,105.3l-2.16-.63.39-1.28c.71.22,1.42.42,2.13.62Z" transform="translate(-15.09 -13.19)" fill="#6885fc"></path><path d="M83.39,103.29c-.7-.24-1.41-.49-2.11-.75l.46-1.25,2.09.74Z" transform="translate(-15.09 -13.19)" fill="#6885fc"></path><polygon points="101.06 72.27 111.35 50.49 129.73 54.87 119.26 76.89 101.06 72.27" fill="#6885fc"></polygon><polygon points="24.07 25.41 55.67 15.32 63.57 47.98 37.12 61.52 24.07 25.41" fill="#fff"></polygon><polygon points="22.24 90.1 37.27 99.51 42.32 82.76 25.74 71.45 22.24 90.1" fill="#6885fc"></polygon><polygon points="101.31 108.01 104.17 89.28 125.91 87.85 121.24 105.97 101.31 108.01" fill="#fff"></polygon><polygon points="108.43 69.15 106.53 68.72 108.02 65.77 109.93 66.2 108.43 69.15" fill="#fff"></polygon><polygon points="110.78 69.67 108.87 69.25 111.92 63.24 113.83 63.66 110.78 69.67" fill="#6885fc"></polygon><polygon points="113.13 70.2 111.22 69.77 113.08 66.11 114.98 66.54 113.13 70.2" fill="#fff"></polygon><polygon points="115.47 70.73 113.57 70.3 117.59 62.39 119.49 62.82 115.47 70.73" fill="#6885fc"></polygon><polygon points="110.78 69.67 108.87 69.25 111.92 63.24 113.83 63.66 110.78 69.67" fill="url(#linear-gradient-5)"></polygon><polygon points="115.47 70.73 113.57 70.3 117.59 62.39 119.49 62.82 115.47 70.73" fill="url(#linear-gradient-6)"></polygon><polygon points="117.82 71.26 115.92 70.83 121.06 60.71 122.96 61.14 117.82 71.26" fill="#fff"></polygon><path d="M55.17,49.27a5.91,5.91,0,0,1,.55-2.52L52,44.7a10.18,10.18,0,0,0-1.07,4.57,10.35,10.35,0,0,0,7.81,10l.76-4.23A6.07,6.07,0,0,1,55.17,49.27Z" transform="translate(-15.09 -13.19)" fill="#473f47"></path><path d="M70.12,54.59a10.36,10.36,0,0,1-8.89,5,10.22,10.22,0,0,1-2.54-.32l.76-4.23a6.18,6.18,0,0,0,1.78.26,6.06,6.06,0,0,0,5.12-2.8Z" transform="translate(-15.09 -13.19)" fill="#6885fc" opacity="0.18" style="isolation: isolate;"></path><path d="M71.59,49.27a10.31,10.31,0,0,1-1.47,5.32l-3.77-2.05a6.07,6.07,0,1,0-10.63-5.79L52,44.7a10.35,10.35,0,0,1,19.64,4.57Z" transform="translate(-15.09 -13.19)" fill="#6885fc"></path><g id="G8KHDO"><path d="M123,115.42a.41.41,0,0,1,.12-.31,1.55,1.55,0,0,0,.39-.68.8.8,0,0,0-.33-.87,1.69,1.69,0,0,0-.57-.28.44.44,0,0,1-.32-.48c0-.13,0-.27,0-.4a.46.46,0,0,1,.49-.43,1.4,1.4,0,0,0,.57-.13.82.82,0,0,0,.49-1,3.13,3.13,0,0,0-.19-.51.45.45,0,0,1,.14-.56,3.5,3.5,0,0,0,.3-.24.51.51,0,0,1,.62,0,1.65,1.65,0,0,0,.51.35.83.83,0,0,0,1-.28,1.86,1.86,0,0,0,.29-.6.44.44,0,0,1,.5-.29l.4,0a.43.43,0,0,1,.39.43,1.74,1.74,0,0,0,.2.74.85.85,0,0,0,.88.4,2.2,2.2,0,0,0,.56-.2.46.46,0,0,1,.62.15c.07.12.18.22.26.34a.45.45,0,0,1-.05.55,1.62,1.62,0,0,0-.35.54.82.82,0,0,0,.4,1.08,2.4,2.4,0,0,0,.46.21.44.44,0,0,1,.32.44c0,.16,0,.32-.06.49a.43.43,0,0,1-.44.37,1.75,1.75,0,0,0-.68.17.81.81,0,0,0-.45.88,2,2,0,0,0,.19.59.44.44,0,0,1-.14.62l-.28.21a.44.44,0,0,1-.62,0,1.6,1.6,0,0,0-.57-.35.83.83,0,0,0-1,.32,1.76,1.76,0,0,0-.27.57.43.43,0,0,1-.47.3l-.47-.06a.44.44,0,0,1-.36-.4,1.71,1.71,0,0,0-.16-.7.82.82,0,0,0-1-.45,3.62,3.62,0,0,0-.55.2.46.46,0,0,1-.55-.1c-.1-.13-.2-.25-.29-.39a.93.93,0,0,1-.1-.25Zm3.74-3.75a1.46,1.46,0,1,0,1.45,1.46A1.46,1.46,0,0,0,126.71,111.67Z" transform="translate(-15.09 -13.19)" fill="#6885fc"></path><path d="M134.06,111.18a1,1,0,0,1,0,.17.31.31,0,0,1-.25.29l-.3.08a.34.34,0,0,1-.4-.19c-.07-.12-.14-.24-.22-.35a.64.64,0,0,0-.93-.1,2.18,2.18,0,0,0-.28.25.34.34,0,0,1-.43.07l-.24-.14a.36.36,0,0,1-.17-.47,1.65,1.65,0,0,0,.09-.43.62.62,0,0,0-.55-.66,3.71,3.71,0,0,0-.47,0,.32.32,0,0,1-.31-.29,1.83,1.83,0,0,0-.06-.25.35.35,0,0,1,.19-.42,1.65,1.65,0,0,0,.41-.28.6.6,0,0,0,.09-.79,3.88,3.88,0,0,0-.26-.31.35.35,0,0,1-.08-.52l.12-.22a.35.35,0,0,1,.44-.14,1.1,1.1,0,0,0,.54.08.57.57,0,0,0,.54-.44,2.07,2.07,0,0,0,.05-.5.35.35,0,0,1,.23-.36l.35-.08a.32.32,0,0,1,.39.21,1.2,1.2,0,0,0,.35.46.62.62,0,0,0,.8,0,1.84,1.84,0,0,0,.25-.23.36.36,0,0,1,.44-.09l.29.17a.33.33,0,0,1,.13.41,1.31,1.31,0,0,0-.09.51.63.63,0,0,0,.54.62l.42,0a.33.33,0,0,1,.36.28c0,.1.05.2.07.3a.3.3,0,0,1-.19.37,1.28,1.28,0,0,0-.43.3.59.59,0,0,0-.1.72,1.91,1.91,0,0,0,.31.38.36.36,0,0,1,.08.48l-.14.23a.33.33,0,0,1-.45.15,1.07,1.07,0,0,0-.66,0,.62.62,0,0,0-.43.48,1.86,1.86,0,0,0,0,.34Zm-1.24-3.84a1.09,1.09,0,0,0-1.1,1.09,1.1,1.1,0,1,0,1.1-1.09Z" transform="translate(-15.09 -13.19)" fill="#6885fc"></path></g><circle cx="30.89" cy="85.41" r="4.73" fill="#473f47"></circle><path d="M46,93v5.78l5.09-3.67S48.74,92.55,46,93Z" transform="translate(-15.09 -13.19)" fill="#fff"></path><polygon points="63.89 101.49 57.62 103.25 59.79 107.44 64.24 106.19 63.89 101.49" fill="#6885fc"></polygon><polygon points="63.89 101.49 57.62 103.25 59.79 107.44 64.24 106.19 63.89 101.49" fill="url(#linear-gradient-7)"></polygon><path d="M68.8,105.92a2.18,2.18,0,0,0,.1,1.07,14.17,14.17,0,0,0,1.88,4.54c1.39,2,3.56,3.25,5.66,4.46-.18-.15-.15-1.26-.18-1.51L76.11,113a5.21,5.21,0,0,0-.89-2.17,11.13,11.13,0,0,0-3.68-3.7A10.62,10.62,0,0,0,68.8,105.92Z" transform="translate(-15.09 -13.19)" fill="#6885fc"></path><path d="M68.8,105.92a2.18,2.18,0,0,0,.1,1.07,14.17,14.17,0,0,0,1.88,4.54c1.39,2,3.56,3.25,5.66,4.46-.18-.15-.15-1.26-.18-1.51L76.11,113a5.21,5.21,0,0,0-.89-2.17,11.13,11.13,0,0,0-3.68-3.7A10.62,10.62,0,0,0,68.8,105.92Z" transform="translate(-15.09 -13.19)" fill="url(#linear-gradient-8)"></path><path d="M77.44,109a15.13,15.13,0,0,0,.11-4,5.15,5.15,0,0,0-1.92-3.44l-1.57,5.52a10.63,10.63,0,0,0-.57,3.25,7.84,7.84,0,0,0,3,5.59c.5-.79.39-2.21.5-3.14Z" transform="translate(-15.09 -13.19)" fill="#6885fc"></path><path d="M77.44,109a15.13,15.13,0,0,0,.11-4,5.15,5.15,0,0,0-1.92-3.44l-1.57,5.52a10.63,10.63,0,0,0-.57,3.25,7.84,7.84,0,0,0,3,5.59c.5-.79.39-2.21.5-3.14Z" transform="translate(-15.09 -13.19)" fill="url(#linear-gradient-9)"></path><rect x="71.15" y="113.99" width="9.11" height="2.11" rx="1.06" transform="translate(-43.44 11.64) rotate(-15.73)" fill="#6885fc"></rect></svg>